ffmpeg version 7.0.2-static https://johnvansickle.com/ffmpeg/  Copyright (c) 2000-2024 the FFmpeg developers
  built with gcc 8 (Debian 8.3.0-6)
  configuration: --enable-gpl --enable-version3 --enable-static --disable-debug --disable-ffplay --disable-indev=sndio --disable-outdev=sndio --cc=gcc --enable-fontconfig --enable-frei0r --enable-gnutls --enable-gmp --enable-libgme --enable-gray --enable-libaom --enable-libfribidi --enable-libass --enable-libfreetype --enable-libmp3lame --enable-libopencore-amrnb --enable-libopencore-amrwb --enable-libopenjpeg --enable-librubberband --enable-libsoxr --enable-libspeex --enable-libsrt --enable-libvorbis --enable-libopus --enable-libtheora --enable-libvidstab --enable-libvo-amrwbenc --enable-libvpx --enable-libwebp --enable-libx264 --enable-libx265 --enable-libxml2 --enable-libdav1d --enable-libxvid --enable-libzimg
  libavutil      59.  8.100 / 59.  8.100
  libavcodec     61.  3.100 / 61.  3.100
  libavformat    61.  1.100 / 61.  1.100
  libavdevice    61.  1.100 / 61.  1.100
  libavfilter    10.  1.100 / 10.  1.100
  libswscale      8.  1.100 /  8.  1.100
  libswresample   5.  1.100 /  5.  1.100
  libpostproc    58.  1.100 / 58.  1.100
Input #0, rawvideo, from 'fd:':
  Duration: N/A, start: 0.000000, bitrate: 1990656 kb/s
  Stream #0:0: Video: rawvideo (RGBA / 0x41424752), rgba, 1080x1920, 1990656 kb/s, 30 tbr, 30 tbn
Input #1, mov,mp4,m4a,3gp,3g2,mj2, from 'render_183ae09b-521c-4d8d-8bc7-98fa6272f058TEMP_MPY_wvf_snd.mp4':
  Metadata:
    major_brand     : isom
    minor_version   : 512
    compatible_brands: isomiso2mp41
    encoder         : Lavf61.1.100
  Duration: 00:00:20.59, start: 0.000000, bitrate: 129 kb/s
  Stream #1:0[0x1](und): Audio: aac (LC) (mp4a / 0x6134706D), 44100 Hz, stereo, fltp, 127 kb/s (default)
      Metadata:
        handler_name    : SoundHandler
        vendor_id       : [0][0][0][0]
Incompatible pixel format 'yuva420p' for codec 'libx264', auto-selecting format 'yuv420p'
Stream mapping:
  Stream #0:0 -> #0:0 (rawvideo (native) -> h264 (libx264))
  Stream #1:0 -> #0:1 (copy)
[libx264 @ 0x138229b0] using cpu capabilities: ARMv8 NEON
[libx264 @ 0x138229b0] profile High, level 4.0, 4:2:0, 8-bit
[libx264 @ 0x138229b0] 264 - core 164 r3191 4613ac3 - H.264/MPEG-4 AVC codec - Copyleft 2003-2024 - http://www.videolan.org/x264.html - options: cabac=1 ref=3 deblock=1:0:0 analyse=0x3:0x113 me=hex subme=7 psy=1 psy_rd=1.00:0.00 mixed_ref=1 me_range=16 chroma_me=1 trellis=1 8x8dct=1 cqm=0 deadzone=21,11 fast_pskip=1 chroma_qp_offset=-2 threads=15 lookahead_threads=2 sliced_threads=0 nr=0 decimate=1 interlaced=0 bluray_compat=0 constrained_intra=0 bframes=3 b_pyramid=2 b_adapt=1 b_bias=0 direct=1 weightb=1 open_gop=0 weightp=2 keyint=250 keyint_min=25 scenecut=40 intra_refresh=0 rc_lookahead=40 rc=crf mbtree=1 crf=23.0 qcomp=0.60 qpmin=0 qpmax=69 qpstep=4 ip_ratio=1.40 aq=1:1.00
Output #0, mp4, to '/data/render_183ae09b-521c-4d8d-8bc7-98fa6272f058.mp4':
  Metadata:
    encoder         : Lavf61.1.100
  Stream #0:0: Video: h264 (avc1 / 0x31637661), yuv420p(progressive), 1080x1920, q=2-31, 30 fps, 15360 tbn
      Metadata:
        encoder         : Lavc61.3.100 libx264
      Side data:
        cpb: bitrate max/min/avg: 0/0/0 buffer size: 0 vbv_delay: N/A
  Stream #0:1(und): Audio: aac (LC) (mp4a / 0x6134706D), 44100 Hz, stereo, fltp, 127 kb/s (default)
      Metadata:
        handler_name    : SoundHandler
        vendor_id       : [0][0][0][0]
frame=    0 fps=0.0 q=0.0 size=       0KiB time=N/A bitrate=N/A speed=N/A    frame=    0 fps=0.0 q=0.0 size=       0KiB time=N/A bitrate=N/A speed=N/A    frame=    0 fps=0.0 q=0.0 size=       0KiB time=N/A bitrate=N/A speed=N/A    frame=    0 fps=0.0 q=0.0 size=       0KiB time=N/A bitrate=N/A speed=N/A    frame=    0 fps=0.0 q=0.0 size=       0KiB time=N/A bitrate=N/A speed=N/A    frame=    0 fps=0.0 q=0.0 size=       0KiB time=N/A bitrate=N/A speed=N/A    frame=    0 fps=0.0 q=0.0 size=       0KiB time=N/A bitrate=N/A speed=N/A    frame=    0 fps=0.0 q=0.0 size=       0KiB time=N/A bitrate=N/A speed=N/A    frame=    0 fps=0.0 q=0.0 size=       0KiB time=N/A bitrate=N/A speed=N/A    frame=    0 fps=0.0 q=0.0 size=       0KiB time=N/A bitrate=N/A speed=N/A    frame=    0 fps=0.0 q=0.0 size=       0KiB time=N/A bitrate=N/A speed=N/A    frame=    0 fps=0.0 q=0.0 size=       0KiB time=N/A bitrate=N/A speed=N/A    frame=    0 fps=0.0 q=0.0 size=       0KiB time=N/A bitrate=N/A speed=N/A    frame=    0 fps=0.0 q=0.0 size=       0KiB time=N/A bitrate=N/A speed=N/A    frame=    0 fps=0.0 q=0.0 size=       0KiB time=N/A bitrate=N/A speed=N/A    frame=    0 fps=0.0 q=0.0 size=       0KiB time=N/A bitrate=N/A speed=N/A    frame=    0 fps=0.0 q=0.0 size=       0KiB time=N/A bitrate=N/A speed=N/A    frame=    1 fps=0.1 q=29.0 size=       0KiB time=-00:00:00.03 bitrate=N/A speed=N/A    frame=    3 fps=0.3 q=29.0 size=       0KiB time=00:00:00.03 bitrate=  11.5kbits/s speed=0.00349x    frame=    6 fps=0.6 q=29.0 size=       0KiB time=00:00:00.13 bitrate=   2.9kbits/s speed=0.0133x    frame=    9 fps=0.9 q=29.0 size=       0KiB time=00:00:00.23 bitrate=   1.6kbits/s speed=0.0221x    frame=   13 fps=1.2 q=29.0 size=     256KiB time=00:00:00.36 bitrate=5720.5kbits/s speed=0.0332x    frame=   16 fps=1.4 q=29.0 size=     256KiB time=00:00:00.46 bitrate=4494.7kbits/s speed=0.0404x    frame=   20 fps=1.7 q=29.0 size=     256KiB time=00:00:00.60 bitrate=3495.9kbits/s speed=0.0498x    frame=   23 fps=1.8 q=29.0 size=     256KiB time=00:00:00.70 bitrate=2996.5kbits/s speed=0.0557x    frame=   27 fps=2.1 q=29.0 size=     512KiB time=00:00:00.83 bitrate=5033.6kbits/s speed=0.0638x    frame=   30 fps=2.2 q=29.0 size=     512KiB time=00:00:00.93 bitrate=4494.3kbits/s speed=0.0688x    frame=   33 fps=2.3 q=29.0 size=     512KiB time=00:00:01.03 bitrate=4059.4kbits/s speed=0.0734x    frame=   36 fps=2.5 q=29.0 size=     512KiB time=00:00:01.13 bitrate=3701.2kbits/s speed=0.0778x    frame=   39 fps=2.6 q=29.0 size=     512KiB time=00:00:01.23 bitrate=3401.1kbits/s speed=0.0818x    frame=   43 fps=2.8 q=29.0 size=     768KiB time=00:00:01.36 bitrate=4603.8kbits/s speed=0.0877x    frame=   46 fps=2.9 q=29.0 size=     768KiB time=00:00:01.46 bitrate=4289.9kbits/s speed=0.0911x    frame=   50 fps=3.0 q=29.0 size=     768KiB time=00:00:01.60 bitrate=3932.4kbits/s speed=0.0964x    frame=   53 fps=3.1 q=29.0 size=     768KiB time=00:00:01.70 bitrate=3701.1kbits/s speed=0.0994x    frame=   56 fps=3.2 q=29.0 size=    1024KiB time=00:00:01.80 bitrate=4660.6kbits/s speed=0.102x    frame=   60 fps=3.3 q=29.0 size=    1024KiB time=00:00:01.93 bitrate=4339.1kbits/s speed=0.107x    frame=   63 fps=3.4 q=29.0 size=    1024KiB time=00:00:02.03 bitrate=4125.7kbits/s speed=0.109x    frame=   67 fps=3.5 q=29.0 size=    1280KiB time=00:00:02.16 bitrate=4839.8kbits/s speed=0.113x    frame=   70 fps=3.6 q=29.0 size=    1280KiB time=00:00:02.26 bitrate=4626.2kbits/s speed=0.116x    frame=   74 fps=3.7 q=29.0 size=    1280KiB time=00:00:02.40 bitrate=4369.2kbits/s speed=0.119x    frame=   77 fps=3.7 q=29.0 size=    1280KiB time=00:00:02.50 bitrate=4194.5kbits/s speed=0.121x    frame=   81 fps=3.8 q=29.0 size=    1280KiB time=00:00:02.63 bitrate=3982.1kbits/s speed=0.125x    frame=   84 fps=3.9 q=29.0 size=    1536KiB time=00:00:02.73 bitrate=4603.6kbits/s speed=0.126x    frame=   88 fps=4.0 q=29.0 size=    1536KiB time=00:00:02.86 bitrate=4389.5kbits/s speed=0.13x    frame=   91 fps=4.0 q=29.0 size=    1536KiB time=00:00:02.96 bitrate=4241.6kbits/s speed=0.131x    frame=   94 fps=4.1 q=29.0 size=    1536KiB time=00:00:03.06 bitrate=4103.2kbits/s speed=0.133x    frame=   98 fps=4.1 q=29.0 size=    1792KiB time=00:00:03.20 bitrate=4587.6kbits/s speed=0.135x    frame=  101 fps=4.2 q=29.0 size=    1792KiB time=00:00:03.30 bitrate=4448.6kbits/s speed=0.137x    frame=  105 fps=4.3 q=29.0 size=    1792KiB time=00:00:03.43 bitrate=4275.9kbits/s speed=0.139x    frame=  108 fps=4.3 q=29.0 size=    1792KiB time=00:00:03.53 bitrate=4154.8kbits/s speed=0.14x    frame=  112 fps=4.4 q=29.0 size=    2048KiB time=00:00:03.66 bitrate=4575.7kbits/s speed=0.143x    frame=  115 fps=4.4 q=29.0 size=    2048KiB time=00:00:03.76 bitrate=4454.2kbits/s speed=0.144x    frame=  119 fps=4.5 q=29.0 size=    2048KiB time=00:00:03.90 bitrate=4301.9kbits/s speed=0.146x    frame=  123 fps=4.5 q=29.0 size=    2048KiB time=00:00:04.03 bitrate=4159.7kbits/s speed=0.149x    frame=  126 fps=4.6 q=29.0 size=    2304KiB time=00:00:04.13 bitrate=4566.5kbits/s speed=0.149x    frame=  130 fps=4.6 q=29.0 size=    2304KiB time=00:00:04.26 bitrate=4423.8kbits/s speed=0.151x    frame=  133 fps=4.6 q=29.0 size=    2304KiB time=00:00:04.36 bitrate=4322.5kbits/s speed=0.152x    frame=  137 fps=4.7 q=29.0 size=    2304KiB time=00:00:04.50 bitrate=4194.4kbits/s speed=0.154x    frame=  140 fps=4.7 q=29.0 size=    2560KiB time=00:00:04.60 bitrate=4559.1kbits/s speed=0.155x    frame=  144 fps=4.8 q=29.0 size=    2560KiB time=00:00:04.73 bitrate=4430.7kbits/s speed=0.157x    frame=  148 fps=4.8 q=29.0 size=    2560KiB time=00:00:04.86 bitrate=4309.3kbits/s speed=0.159x    frame=  151 fps=4.8 q=29.0 size=    2560KiB time=00:00:04.96 bitrate=4222.5kbits/s speed=0.159x    frame=  155 fps=4.9 q=29.0 size=    2816KiB time=00:00:05.10 bitrate=4523.3kbits/s speed=0.161x    frame=  158 fps=4.9 q=29.0 size=    2816KiB time=00:00:05.20 bitrate=4436.4kbits/s speed=0.162x    frame=  162 fps=5.0 q=29.0 size=    2816KiB time=00:00:05.33 bitrate=4325.4kbits/s speed=0.163x    frame=  165 fps=5.0 q=29.0 size=    2816KiB time=00:00:05.43 bitrate=4245.8kbits/s speed=0.164x    frame=  169 fps=5.0 q=29.0 size=    3072KiB time=00:00:05.56 bitrate=4520.9kbits/s speed=0.165x    frame=  172 fps=5.0 q=29.0 size=    3072KiB time=00:00:05.66 bitrate=4441.1kbits/s speed=0.166x    frame=  176 fps=5.1 q=29.0 size=    3072KiB time=00:00:05.80 bitrate=4339.0kbits/s speed=0.167x    frame=  179 fps=5.1 q=29.0 size=    3072KiB time=00:00:05.90 bitrate=4265.5kbits/s speed=0.168x    frame=  183 fps=5.1 q=29.0 size=    3328KiB time=00:00:06.03 bitrate=4518.8kbits/s speed=0.169x    frame=  186 fps=5.1 q=29.0 size=    3328KiB time=00:00:06.13 bitrate=4445.1kbits/s speed=0.169x    frame=  189 fps=5.1 q=29.0 size=    3328KiB time=00:00:06.23 bitrate=4373.8kbits/s speed=0.17x    frame=  192 fps=5.2 q=29.0 size=    3328KiB time=00:00:06.33 bitrate=4304.7kbits/s speed=0.17x    frame=  196 fps=5.2 q=29.0 size=    3584KiB time=00:00:06.46 bitrate=4540.3kbits/s speed=0.171x    frame=  199 fps=5.2 q=29.0 size=    3584KiB time=00:00:06.56 bitrate=4471.1kbits/s speed=0.172x    frame=  203 fps=5.2 q=29.0 size=    3584KiB time=00:00:06.70 bitrate=4382.2kbits/s speed=0.173x    frame=  206 fps=5.3 q=29.0 size=    3584KiB time=00:00:06.80 bitrate=4317.7kbits/s speed=0.173x    frame=  210 fps=5.3 q=29.0 size=    3840KiB time=00:00:06.93 bitrate=4537.2kbits/s speed=0.174x    frame=  213 fps=5.3 q=29.0 size=    3840KiB time=00:00:07.03 bitrate=4472.7kbits/s speed=0.175x    frame=  217 fps=5.3 q=29.0 size=    3840KiB time=00:00:07.16 bitrate=4389.4kbits/s speed=0.176x    frame=  220 fps=5.3 q=29.0 size=    3840KiB time=00:00:07.26 bitrate=4329.0kbits/s speed=0.176x    frame=  224 fps=5.4 q=29.0 size=    4096KiB time=00:00:07.40 bitrate=4534.4kbits/s speed=0.177x    frame=  227 fps=5.4 q=29.0 size=    4096KiB time=00:00:07.50 bitrate=4474.0kbits/s speed=0.178x    frame=  231 fps=5.4 q=29.0 size=    4096KiB time=00:00:07.63 bitrate=4395.8kbits/s speed=0.179x    frame=  234 fps=5.4 q=29.0 size=    4096KiB time=00:00:07.73 bitrate=4339.0kbits/s speed=0.179x    frame=  238 fps=5.4 q=29.0 size=    4352KiB time=00:00:07.86 bitrate=4532.0kbits/s speed=0.18x    frame=  242 fps=5.5 q=29.0 size=    4352KiB time=00:00:08.00 bitrate=4456.5kbits/s speed=0.181x    frame=  245 fps=5.5 q=29.0 size=    4352KiB time=00:00:08.10 bitrate=4401.5kbits/s speed=0.181x    frame=  249 fps=5.5 q=29.0 size=    4352KiB time=00:00:08.23 bitrate=4330.2kbits/s speed=0.182x    frame=  252 fps=5.5 q=29.0 size=    4608KiB time=00:00:08.33 bitrate=4529.9kbits/s speed=0.182x    frame=  256 fps=5.5 q=29.0 size=    4608KiB time=00:00:08.46 bitrate=4458.6kbits/s speed=0.183x    frame=  259 fps=5.5 q=29.0 size=    4608KiB time=00:00:08.56 bitrate=4406.5kbits/s speed=0.183x    frame=  262 fps=5.5 q=29.0 size=    4608KiB time=00:00:08.66 bitrate=4355.7kbits/s speed=0.183x    frame=  266 fps=5.6 q=29.0 size=    4864KiB time=00:00:08.80 bitrate=4528.0kbits/s speed=0.184x    frame=  270 fps=5.6 q=29.0 size=    4864KiB time=00:00:08.93 bitrate=4460.4kbits/s speed=0.185x    frame=  273 fps=5.6 q=29.0 size=    4864KiB time=00:00:09.03 bitrate=4411.0kbits/s speed=0.185x    frame=  277 fps=5.6 q=29.0 size=    4864KiB time=00:00:09.16 bitrate=4346.9kbits/s speed=0.186x    frame=  280 fps=5.6 q=29.0 size=    5120KiB time=00:00:09.26 bitrate=4526.3kbits/s speed=0.186x    frame=  284 fps=5.6 q=29.0 size=    5120KiB time=00:00:09.40 bitrate=4462.1kbits/s speed=0.187x    frame=  287 fps=5.7 q=29.0 size=    5120KiB time=00:00:09.50 bitrate=4415.1kbits/s speed=0.187x    frame=  291 fps=5.7 q=29.0 size=    5120KiB time=00:00:09.63 bitrate=4354.0kbits/s speed=0.188x    frame=  295 fps=5.7 q=29.0 size=    5376KiB time=00:00:09.76 bitrate=4509.3kbits/s speed=0.189x    frame=  298 fps=5.7 q=29.0 size=    5376KiB time=00:00:09.86 bitrate=4463.6kbits/s speed=0.189x    frame=  302 fps=5.7 q=29.0 size=    5376KiB time=00:00:10.00 bitrate=4404.1kbits/s speed=0.189x    frame=  305 fps=5.7 q=29.0 size=    5632KiB time=00:00:10.10 bitrate=4568.1kbits/s speed=0.19x    frame=  309 fps=5.7 q=29.0 size=    5632KiB time=00:00:10.23 bitrate=4508.6kbits/s speed=0.19x    frame=  312 fps=5.7 q=29.0 size=    5632KiB time=00:00:10.33 bitrate=4464.9kbits/s speed=0.19x    frame=  316 fps=5.8 q=29.0 size=    5632KiB time=00:00:10.46 bitrate=4408.1kbits/s speed=0.191x    frame=  319 fps=5.8 q=29.0 size=    5888KiB time=00:00:10.56 bitrate=4564.8kbits/s speed=0.191x    frame=  322 fps=5.8 q=29.0 size=    5888KiB time=00:00:10.66 bitrate=4522.0kbits/s speed=0.191x    frame=  326 fps=5.8 q=29.0 size=    5888KiB time=00:00:10.80 bitrate=4466.2kbits/s speed=0.192x    frame=  329 fps=5.8 q=29.0 size=    5888KiB time=00:00:10.90 bitrate=4425.2kbits/s speed=0.192x    frame=  333 fps=5.8 q=29.0 size=    6144KiB time=00:00:11.03 bitrate=4561.8kbits/s speed=0.192x    frame=  336 fps=5.8 q=29.0 size=    6144KiB time=00:00:11.13 bitrate=4520.8kbits/s speed=0.193x    frame=  340 fps=5.8 q=29.0 size=    6144KiB time=00:00:11.26 bitrate=4467.3kbits/s speed=0.193x    frame=  344 fps=5.8 q=29.0 size=    6400KiB time=00:00:11.40 bitrate=4599.1kbits/s speed=0.194x    frame=  347 fps=5.8 q=29.0 size=    6400KiB time=00:00:11.50 bitrate=4559.1kbits/s speed=0.194x    frame=  351 fps=5.9 q=29.0 size=    6400KiB time=00:00:11.63 bitrate=4506.8kbits/s speed=0.194x    frame=  354 fps=5.9 q=29.0 size=    6400KiB time=00:00:11.73 bitrate=4468.4kbits/s speed=0.194x    frame=  358 fps=5.9 q=29.0 size=    6656KiB time=00:00:11.86 bitrate=4594.9kbits/s speed=0.195x    frame=  361 fps=5.9 q=29.0 size=    6656KiB time=00:00:11.96 bitrate=4556.5kbits/s speed=0.195x    frame=  365 fps=5.9 q=29.0 size=    6656KiB time=00:00:12.10 bitrate=4506.3kbits/s speed=0.196x    frame=  368 fps=5.9 q=29.0 size=    6656KiB time=00:00:12.20 bitrate=4469.4kbits/s speed=0.196x    frame=  372 fps=5.9 q=29.0 size=    6912KiB time=00:00:12.33 bitrate=4591.1kbits/s speed=0.196x    frame=  375 fps=5.9 q=29.0 size=    6912KiB time=00:00:12.43 bitrate=4554.2kbits/s speed=0.196x    frame=  379 fps=5.9 q=29.0 size=    6912KiB time=00:00:12.56 bitrate=4505.8kbits/s speed=0.197x    frame=  383 fps=6.0 q=29.0 size=    6912KiB time=00:00:12.70 bitrate=4458.5kbits/s speed=0.197x    frame=  386 fps=6.0 q=29.0 size=    7168KiB time=00:00:12.80 bitrate=4587.6kbits/s speed=0.197x    frame=  390 fps=6.0 q=29.0 size=    7168KiB time=00:00:12.93 bitrate=4540.3kbits/s speed=0.198x    frame=  393 fps=6.0 q=29.0 size=    7168KiB time=00:00:13.03 bitrate=4505.4kbits/s speed=0.198x    frame=  397 fps=6.0 q=29.0 size=    7168KiB time=00:00:13.16 bitrate=4459.8kbits/s speed=0.198x    frame=  400 fps=6.0 q=29.0 size=    7424KiB time=00:00:13.26 bitrate=4584.3kbits/s speed=0.198x    frame=  404 fps=6.0 q=29.0 size=    7424KiB time=00:00:13.40 bitrate=4538.6kbits/s speed=0.199x    frame=  407 fps=6.0 q=29.0 size=    7424KiB time=00:00:13.50 bitrate=4505.0kbits/s speed=0.199x    frame=  411 fps=6.0 q=29.0 size=    7424KiB time=00:00:13.63 bitrate=4461.0kbits/s speed=0.199x    frame=  414 fps=6.0 q=29.0 size=    7680KiB time=00:00:13.73 bitrate=4581.2kbits/s speed=0.199x    frame=  418 fps=6.0 q=29.0 size=    7680KiB time=00:00:13.86 bitrate=4537.1kbits/s speed= 0.2x    frame=  422 fps=6.0 q=29.0 size=    7680KiB time=00:00:14.00 bitrate=4493.9kbits/s speed= 0.2x    frame=  425 fps=6.0 q=29.0 size=    7936KiB time=00:00:14.10 bitrate=4610.8kbits/s speed= 0.2x    frame=  429 fps=6.0 q=29.0 size=    7936KiB time=00:00:14.23 bitrate=4567.6kbits/s speed=0.201x    frame=  432 fps=6.0 q=29.0 size=    7936KiB time=00:00:14.33 bitrate=4535.7kbits/s speed=0.201x    frame=  436 fps=6.1 q=29.0 size=    7936KiB time=00:00:14.46 bitrate=4493.9kbits/s speed=0.201x    frame=  439 fps=6.1 q=29.0 size=    8192KiB time=00:00:14.56 bitrate=4607.0kbits/s speed=0.201x    frame=  443 fps=6.1 q=29.0 size=    8192KiB time=00:00:14.70 bitrate=4565.3kbits/s speed=0.202x    frame=  447 fps=6.1 q=29.0 size=    8192KiB time=00:00:14.83 bitrate=4524.2kbits/s speed=0.202x    frame=  450 fps=6.1 q=29.0 size=    8192KiB time=00:00:14.93 bitrate=4493.9kbits/s speed=0.202x    frame=  454 fps=6.1 q=29.0 size=    8448KiB time=00:00:15.06 bitrate=4593.3kbits/s speed=0.202x    frame=  457 fps=6.1 q=29.0 size=    8448KiB time=00:00:15.16 bitrate=4563.1kbits/s speed=0.202x    frame=  461 fps=6.1 q=29.0 size=    8448KiB time=00:00:15.30 bitrate=4523.3kbits/s speed=0.203x    frame=  464 fps=6.1 q=29.0 size=    8448KiB time=00:00:15.40 bitrate=4493.9kbits/s speed=0.203x    frame=  468 fps=6.1 q=29.0 size=    8704KiB time=00:00:15.53 bitrate=4590.4kbits/s speed=0.203x    frame=  471 fps=6.1 q=29.0 size=    8704KiB time=00:00:15.63 bitrate=4561.0kbits/s speed=0.203x    frame=  475 fps=6.1 q=29.0 size=    8704KiB time=00:00:15.76 bitrate=4522.4kbits/s speed=0.204x    frame=  479 fps=6.1 q=29.0 size=    8704KiB time=00:00:15.90 bitrate=4484.5kbits/s speed=0.204x    frame=  482 fps=6.1 q=29.0 size=    8960KiB time=00:00:16.00 bitrate=4587.5kbits/s speed=0.204x    frame=  486 fps=6.2 q=29.0 size=    8960KiB time=00:00:16.13 bitrate=4549.6kbits/s speed=0.204x    frame=  489 fps=6.2 q=29.0 size=    8960KiB time=00:00:16.23 bitrate=4521.6kbits/s speed=0.204x    frame=  493 fps=6.2 q=29.0 size=    8960KiB time=00:00:16.36 bitrate=4484.8kbits/s speed=0.205x    frame=  496 fps=6.2 q=29.0 size=    9216KiB time=00:00:16.46 bitrate=4584.9kbits/s speed=0.205x    frame=  500 fps=6.2 q=29.0 size=    9216KiB time=00:00:16.60 bitrate=4548.1kbits/s speed=0.205x    frame=  504 fps=6.2 q=29.0 size=    9216KiB time=00:00:16.73 bitrate=4511.8kbits/s speed=0.205x    frame=  507 fps=6.2 q=29.0 size=    9472KiB time=00:00:16.83 bitrate=4609.6kbits/s speed=0.205x    frame=  511 fps=6.2 q=29.0 size=    9472KiB time=00:00:16.96 bitrate=4573.4kbits/s speed=0.206x    frame=  514 fps=6.2 q=29.0 size=    9472KiB time=00:00:17.06 bitrate=4546.6kbits/s speed=0.206x    frame=  518 fps=6.2 q=29.0 size=    9472KiB time=00:00:17.20 bitrate=4511.3kbits/s speed=0.206x    frame=  521 fps=6.2 q=29.0 size=    9472KiB time=00:00:17.30 bitrate=4485.3kbits/s speed=0.206x    frame=  525 fps=6.2 q=29.0 size=    9728KiB time=00:00:17.43 bitrate=4571.3kbits/s speed=0.206x    frame=  529 fps=6.2 q=29.0 size=    9728KiB time=00:00:17.56 bitrate=4536.6kbits/s speed=0.207x    frame=  532 fps=6.2 q=29.0 size=    9728KiB time=00:00:17.66 bitrate=4510.9kbits/s speed=0.207x    frame=  536 fps=6.2 q=29.0 size=    9984KiB time=00:00:17.80 bitrate=4594.9kbits/s speed=0.207x    frame=  539 fps=6.2 q=29.0 size=    9984KiB time=00:00:17.90 bitrate=4569.2kbits/s speed=0.207x    frame=  543 fps=6.2 q=29.0 size=    9984KiB time=00:00:18.03 bitrate=4535.5kbits/s speed=0.207x    frame=  546 fps=6.2 q=29.0 size=    9984KiB time=00:00:18.13 bitrate=4510.4kbits/s speed=0.207x    frame=  550 fps=6.2 q=29.0 size=    9984KiB time=00:00:18.26 bitrate=4477.5kbits/s speed=0.208x    frame=  553 fps=6.2 q=29.0 size=   10240KiB time=00:00:18.36 bitrate=4567.3kbits/s speed=0.208x    frame=  557 fps=6.3 q=29.0 size=   10240KiB time=00:00:18.50 bitrate=4534.4kbits/s speed=0.208x    frame=  595 fps=6.6 q=29.0 size=   11008KiB time=00:00:19.76 bitrate=4562.1kbits/s speed=0.221x    [out#0/mp4 @ 0x13829080] video:11136KiB audio:321KiB subtitle:0KiB other streams:0KiB global headers:0KiB muxing overhead: 0.202358%
frame=  617 fps=6.9 q=-1.0 Lsize=   11480KiB time=00:00:20.50 bitrate=4587.7kbits/s speed=0.228x    
[libx264 @ 0x138229b0] frame I:3     Avg QP:20.38  size: 45580
[libx264 @ 0x138229b0] frame P:155   Avg QP:23.14  size: 29296
[libx264 @ 0x138229b0] frame B:459   Avg QP:24.51  size: 14652
[libx264 @ 0x138229b0] consecutive B-frames:  0.6%  0.3%  0.5% 98.5%
[libx264 @ 0x138229b0] mb I  I16..4: 23.0% 71.8%  5.2%
[libx264 @ 0x138229b0] mb P  I16..4: 14.6% 29.1%  0.8%  P16..4: 34.1%  5.1%  1.4%  0.0%  0.0%    skip:14.9%
[libx264 @ 0x138229b0] mb B  I16..4:  2.6%  3.2%  0.0%  B16..8: 39.1%  5.1%  0.5%  direct: 4.0%  skip:45.5%  L0:50.0% L1:47.1% BI: 2.9%
[libx264 @ 0x138229b0] 8x8 transform intra:62.9% inter:93.2%
[libx264 @ 0x138229b0] coded y,uvDC,uvAC intra: 28.9% 43.3% 3.8% inter: 13.0% 23.3% 0.1%
[libx264 @ 0x138229b0] i16 v,h,dc,p: 26% 20%  5% 48%
[libx264 @ 0x138229b0] i8 v,h,dc,ddl,ddr,vr,hd,vl,hu: 25% 14% 26%  3%  8%  9%  6%  5%  3%
[libx264 @ 0x138229b0] i4 v,h,dc,ddl,ddr,vr,hd,vl,hu: 30% 19% 17%  5%  9%  8%  5%  5%  3%
[libx264 @ 0x138229b0] i8c dc,h,v,p: 61% 17% 19%  3%
[libx264 @ 0x138229b0] Weighted P-Frames: Y:0.0% UV:0.0%
[libx264 @ 0x138229b0] ref P L0: 52.1%  6.1% 24.2% 17.6%
[libx264 @ 0x138229b0] ref B L0: 80.6% 13.2%  6.2%
[libx264 @ 0x138229b0] ref B L1: 93.9%  6.1%
[libx264 @ 0x138229b0] kb/s:4435.45
